<svg xmlns="http://www.w3.org/2000/svg">
	<!-- General Icons -->
		<symbol id="close" viewBox="0 0 48 48">
			<g fill="none" stroke-width="2" stroke-linecap="square" stroke-miterlimit="10" stroke-linejoin="miter">
				<line x1="38" y1="10" x2="10" y2="38"></line>
				<line x1="38" y1="38" x2="10" y2="10"></line>
			</g>
		</symbol>
	<!-- End Of General Icons -->

	<!-- Blog Icons -->
		<symbol id="menu-alt" viewBox="0 0 24 24">
			<line fill="none" stroke-width="2" stroke-linecap="square" stroke-miterlimit="10" x1="1" y1="12" x2="14" y2="12" stroke-linejoin="miter"></line>
			<line fill="none" stroke-width="2" stroke-linecap="square" stroke-miterlimit="10" x1="1" y1="5" x2="23" y2="5" stroke-linejoin="miter"></line>
			<line fill="none" stroke-width="2" stroke-linecap="square" stroke-miterlimit="10" x1="1" y1="19" x2="23" y2="19" stroke-linejoin="miter"></line>
		</symbol>

		<symbol id="folder" viewBox="0 0 24 24">
			<line fill="none" stroke-width="2" stroke-linecap="square" stroke-miterlimit="10" x1="1" y1="8" x2="23" y2="8" stroke-linejoin="miter"></line>
			<polygon fill="none" stroke-width="2" stroke-linecap="square" stroke-miterlimit="10" points="23,23 1,23 1,1 10,1 12,4 23,4 " stroke-linejoin="miter"></polygon>
		</symbol>

		<symbol id="filter" viewBox="0 0 24 24">
			<polygon fill="none" stroke-width="2" stroke-linecap="square" stroke-miterlimit="10" points="21,5 14,11 14,20 10,22 10,11 3,5 3,1 21,1 " stroke-linejoin="miter"></polygon>
		</symbol>
	<!-- End Of Blog Icons -->

	<!-- Form Icons -->
		<symbol id="select" viewBox="0 0 48 48">
			<path d="M24,33c0.3,0,0.7-0.2,0.8-0.5l10-16c0.2-0.3,0.2-0.7,0-1C34.7,15.2,34.4,15,34,15H14c-0.4,0-0.7,0.2-0.9,0.5 c-0.2,0.3-0.2,0.7,0,1l10,16C23.3,32.8,23.7,33,24,33z"></path>
		</symbol>

		<symbol id="checkbox" viewBox="0 0 24 24">
			<polygon points="2,11 4,9 9,12 20,4 22,6 9,19 "></polygon>
		</symbol>
	<!-- End Of Form Icons -->

	<!-- Nav Icons -->
		<symbol id="breadcrumb-spacer" viewBox="0 0 24 24">
			<g transform="translate(0.5, 0.5)" fill="none" stroke-width="2" stroke-miterlimit="10" stroke-linejoin="miter" >
				<line x1="2" y1="12" x2="22" y2="12" data-cap="butt" stroke-linecap="butt"></line>
				<polyline points="15,5 22,12 15,19" stroke-linecap="square"></polyline>
			</g>
		</symbol>
		<symbol id="menu-dots" viewBox="0 0 48 48">
			<circle cx="24" cy="24" r="4"></circle>
			<circle cx="6" cy="24" r="4"></circle>
			<circle cx="42" cy="24" r="4"></circle>
		</symbol>
		<symbol id="menu-back" viewBox="0 0 48 48">
			<g fill="none" stroke-width="3" stroke-miterlimit="10" stroke-linejoin="miter">
				<line x1="46" y1="24" x2="3" y2="24" data-cap="butt" stroke-linecap="butt"></line>
				<polyline points="17,10 3,24 17,38" stroke-linecap="square"></polyline>
			</g>
		</symbol>
	<!-- End OfNav Icons -->
</svg>
